<mxfile host="app.diagrams.net" modified="2023-11-14T19:45:14.963Z" agent="Mozilla/5.0 (Windows NT 10.0; Win64; x64) AppleWebKit/537.36 (KHTML, like Gecko) Chrome/118.0.0.0 Safari/537.36 OPR/104.0.0.0" etag="wIy-d2Ukep9k5TbhAfHV" version="22.1.1" type="device">
  <diagram name="Page-1" id="0BG4JVXyCKxln4ZqfxGC">
    <mxGraphModel dx="3890" dy="1431" grid="1" gridSize="10" guides="1" tooltips="1" connect="1" arrows="1" fold="1" page="1" pageScale="1" pageWidth="850" pageHeight="1100" math="0" shadow="0">
      <root>
        <mxCell id="0" />
        <mxCell id="1" parent="0" />
        <mxCell id="MnjqV8rqZ6TKMYj_u7_5-6" value="Авторизація" style="swimlane;whiteSpace=wrap;html=1;" vertex="1" parent="1">
          <mxGeometry x="-310" width="230" height="330" as="geometry" />
        </mxCell>
        <mxCell id="MnjqV8rqZ6TKMYj_u7_5-7" value="" style="rounded=0;whiteSpace=wrap;html=1;" vertex="1" parent="MnjqV8rqZ6TKMYj_u7_5-6">
          <mxGeometry x="70" y="130" width="140" height="20" as="geometry" />
        </mxCell>
        <mxCell id="MnjqV8rqZ6TKMYj_u7_5-8" value="" style="rounded=0;whiteSpace=wrap;html=1;" vertex="1" parent="MnjqV8rqZ6TKMYj_u7_5-6">
          <mxGeometry x="70" y="160" width="140" height="20" as="geometry" />
        </mxCell>
        <mxCell id="MnjqV8rqZ6TKMYj_u7_5-9" value="Логін" style="text;html=1;strokeColor=none;fillColor=none;align=left;verticalAlign=middle;whiteSpace=wrap;rounded=0;" vertex="1" parent="MnjqV8rqZ6TKMYj_u7_5-6">
          <mxGeometry x="15" y="125" width="50" height="30" as="geometry" />
        </mxCell>
        <mxCell id="MnjqV8rqZ6TKMYj_u7_5-10" value="Пароль" style="text;html=1;strokeColor=none;fillColor=none;align=left;verticalAlign=middle;whiteSpace=wrap;rounded=0;" vertex="1" parent="MnjqV8rqZ6TKMYj_u7_5-6">
          <mxGeometry x="15" y="155" width="60" height="30" as="geometry" />
        </mxCell>
        <mxCell id="MnjqV8rqZ6TKMYj_u7_5-12" value="&lt;font style=&quot;font-size: 18px;&quot;&gt;&lt;b&gt;Авторизація&lt;/b&gt;&lt;/font&gt;" style="text;html=1;strokeColor=none;fillColor=none;align=center;verticalAlign=middle;whiteSpace=wrap;rounded=0;" vertex="1" parent="MnjqV8rqZ6TKMYj_u7_5-6">
          <mxGeometry x="85" y="60" width="60" height="30" as="geometry" />
        </mxCell>
        <mxCell id="MnjqV8rqZ6TKMYj_u7_5-14" value="Зареєструватись" style="rounded=1;whiteSpace=wrap;html=1;" vertex="1" parent="MnjqV8rqZ6TKMYj_u7_5-6">
          <mxGeometry x="20" y="230" width="190" height="30" as="geometry" />
        </mxCell>
        <mxCell id="MnjqV8rqZ6TKMYj_u7_5-15" value="Забули пароль?" style="rounded=1;whiteSpace=wrap;html=1;" vertex="1" parent="MnjqV8rqZ6TKMYj_u7_5-6">
          <mxGeometry x="105" y="185" width="105" height="30" as="geometry" />
        </mxCell>
        <mxCell id="MnjqV8rqZ6TKMYj_u7_5-13" value="Увійти" style="rounded=1;whiteSpace=wrap;html=1;" vertex="1" parent="MnjqV8rqZ6TKMYj_u7_5-6">
          <mxGeometry x="20" y="280" width="190" height="30" as="geometry" />
        </mxCell>
        <mxCell id="MnjqV8rqZ6TKMYj_u7_5-17" value="Реєстрація" style="swimlane;whiteSpace=wrap;html=1;" vertex="1" parent="1">
          <mxGeometry x="-50" width="230" height="280" as="geometry" />
        </mxCell>
        <mxCell id="MnjqV8rqZ6TKMYj_u7_5-18" value="" style="rounded=0;whiteSpace=wrap;html=1;" vertex="1" parent="MnjqV8rqZ6TKMYj_u7_5-17">
          <mxGeometry x="70" y="130" width="140" height="20" as="geometry" />
        </mxCell>
        <mxCell id="MnjqV8rqZ6TKMYj_u7_5-19" value="" style="rounded=0;whiteSpace=wrap;html=1;" vertex="1" parent="MnjqV8rqZ6TKMYj_u7_5-17">
          <mxGeometry x="70" y="160" width="140" height="20" as="geometry" />
        </mxCell>
        <mxCell id="MnjqV8rqZ6TKMYj_u7_5-20" value="Логін" style="text;html=1;strokeColor=none;fillColor=none;align=left;verticalAlign=middle;whiteSpace=wrap;rounded=0;" vertex="1" parent="MnjqV8rqZ6TKMYj_u7_5-17">
          <mxGeometry x="15" y="125" width="50" height="30" as="geometry" />
        </mxCell>
        <mxCell id="MnjqV8rqZ6TKMYj_u7_5-21" value="Пароль" style="text;html=1;strokeColor=none;fillColor=none;align=left;verticalAlign=middle;whiteSpace=wrap;rounded=0;" vertex="1" parent="MnjqV8rqZ6TKMYj_u7_5-17">
          <mxGeometry x="15" y="155" width="60" height="30" as="geometry" />
        </mxCell>
        <mxCell id="MnjqV8rqZ6TKMYj_u7_5-22" value="&lt;font style=&quot;font-size: 18px;&quot;&gt;&lt;b&gt;Реєстрація&lt;/b&gt;&lt;/font&gt;" style="text;html=1;strokeColor=none;fillColor=none;align=center;verticalAlign=middle;whiteSpace=wrap;rounded=0;" vertex="1" parent="MnjqV8rqZ6TKMYj_u7_5-17">
          <mxGeometry x="85" y="60" width="60" height="30" as="geometry" />
        </mxCell>
        <mxCell id="MnjqV8rqZ6TKMYj_u7_5-24" value="Зареєструватись" style="rounded=1;whiteSpace=wrap;html=1;" vertex="1" parent="MnjqV8rqZ6TKMYj_u7_5-17">
          <mxGeometry x="20" y="230" width="190" height="30" as="geometry" />
        </mxCell>
        <mxCell id="MnjqV8rqZ6TKMYj_u7_5-35" value="" style="rounded=0;whiteSpace=wrap;html=1;" vertex="1" parent="MnjqV8rqZ6TKMYj_u7_5-17">
          <mxGeometry x="70" y="190" width="140" height="20" as="geometry" />
        </mxCell>
        <mxCell id="MnjqV8rqZ6TKMYj_u7_5-36" value="Пароль" style="text;html=1;strokeColor=none;fillColor=none;align=left;verticalAlign=middle;whiteSpace=wrap;rounded=0;" vertex="1" parent="MnjqV8rqZ6TKMYj_u7_5-17">
          <mxGeometry x="15" y="185" width="60" height="30" as="geometry" />
        </mxCell>
        <mxCell id="MnjqV8rqZ6TKMYj_u7_5-26" value="" style="endArrow=classic;html=1;rounded=0;exitX=1;exitY=0.5;exitDx=0;exitDy=0;entryX=0;entryY=0.5;entryDx=0;entryDy=0;" edge="1" parent="1" source="MnjqV8rqZ6TKMYj_u7_5-14" target="MnjqV8rqZ6TKMYj_u7_5-24">
          <mxGeometry width="50" height="50" relative="1" as="geometry">
            <mxPoint x="10" y="250" as="sourcePoint" />
            <mxPoint x="60" y="200" as="targetPoint" />
          </mxGeometry>
        </mxCell>
        <mxCell id="MnjqV8rqZ6TKMYj_u7_5-28" value="Головна сторінка" style="swimlane;whiteSpace=wrap;html=1;" vertex="1" parent="1">
          <mxGeometry x="-375" y="400" width="360" height="200" as="geometry" />
        </mxCell>
        <mxCell id="MnjqV8rqZ6TKMYj_u7_5-29" value="Торгова ділянка" style="rounded=1;whiteSpace=wrap;html=1;" vertex="1" parent="MnjqV8rqZ6TKMYj_u7_5-28">
          <mxGeometry x="120" y="20" width="120" height="40" as="geometry" />
        </mxCell>
        <mxCell id="MnjqV8rqZ6TKMYj_u7_5-30" value="Форум" style="rounded=1;whiteSpace=wrap;html=1;" vertex="1" parent="MnjqV8rqZ6TKMYj_u7_5-28">
          <mxGeometry x="240" y="20" width="120" height="40" as="geometry" />
        </mxCell>
        <mxCell id="MnjqV8rqZ6TKMYj_u7_5-31" value="Персональний кабінет" style="rounded=1;whiteSpace=wrap;html=1;" vertex="1" parent="MnjqV8rqZ6TKMYj_u7_5-28">
          <mxGeometry y="20" width="120" height="40" as="geometry" />
        </mxCell>
        <mxCell id="MnjqV8rqZ6TKMYj_u7_5-32" value="&lt;font style=&quot;font-size: 18px;&quot;&gt;&lt;b&gt;Опис сайту&lt;/b&gt;&lt;/font&gt;" style="text;html=1;strokeColor=none;fillColor=none;align=center;verticalAlign=middle;whiteSpace=wrap;rounded=0;" vertex="1" parent="MnjqV8rqZ6TKMYj_u7_5-28">
          <mxGeometry y="80" width="120" height="30" as="geometry" />
        </mxCell>
        <mxCell id="MnjqV8rqZ6TKMYj_u7_5-33" value="" style="endArrow=classic;html=1;rounded=0;exitX=0.5;exitY=1;exitDx=0;exitDy=0;entryX=0.5;entryY=0;entryDx=0;entryDy=0;" edge="1" parent="1" source="MnjqV8rqZ6TKMYj_u7_5-13" target="MnjqV8rqZ6TKMYj_u7_5-28">
          <mxGeometry width="50" height="50" relative="1" as="geometry">
            <mxPoint x="10" y="550" as="sourcePoint" />
            <mxPoint x="60" y="500" as="targetPoint" />
          </mxGeometry>
        </mxCell>
        <mxCell id="MnjqV8rqZ6TKMYj_u7_5-34" value="" style="endArrow=classic;html=1;rounded=0;exitX=0;exitY=0;exitDx=0;exitDy=0;entryX=1;entryY=0.5;entryDx=0;entryDy=0;" edge="1" parent="1" source="MnjqV8rqZ6TKMYj_u7_5-24" target="MnjqV8rqZ6TKMYj_u7_5-6">
          <mxGeometry width="50" height="50" relative="1" as="geometry">
            <mxPoint x="-30" y="215" as="sourcePoint" />
            <mxPoint x="-66" y="441" as="targetPoint" />
          </mxGeometry>
        </mxCell>
        <mxCell id="MnjqV8rqZ6TKMYj_u7_5-37" value="Форум" style="swimlane;whiteSpace=wrap;html=1;" vertex="1" parent="1">
          <mxGeometry x="60" y="400" width="360" height="440" as="geometry" />
        </mxCell>
        <mxCell id="MnjqV8rqZ6TKMYj_u7_5-38" value="Опублікувати" style="rounded=1;whiteSpace=wrap;html=1;" vertex="1" parent="MnjqV8rqZ6TKMYj_u7_5-37">
          <mxGeometry x="236.25" y="205" width="100" height="30" as="geometry" />
        </mxCell>
        <mxCell id="MnjqV8rqZ6TKMYj_u7_5-49" value="" style="rounded=0;whiteSpace=wrap;html=1;" vertex="1" parent="MnjqV8rqZ6TKMYj_u7_5-37">
          <mxGeometry x="93.75" y="135" width="242.5" height="60" as="geometry" />
        </mxCell>
        <mxCell id="MnjqV8rqZ6TKMYj_u7_5-50" value="Текст" style="text;html=1;strokeColor=none;fillColor=none;align=right;verticalAlign=middle;whiteSpace=wrap;rounded=0;" vertex="1" parent="MnjqV8rqZ6TKMYj_u7_5-37">
          <mxGeometry x="23.75" y="135" width="60" height="30" as="geometry" />
        </mxCell>
        <mxCell id="MnjqV8rqZ6TKMYj_u7_5-51" value="Заголовок" style="text;html=1;strokeColor=none;fillColor=none;align=left;verticalAlign=middle;whiteSpace=wrap;rounded=0;" vertex="1" parent="MnjqV8rqZ6TKMYj_u7_5-37">
          <mxGeometry x="23.75" y="100" width="60" height="30" as="geometry" />
        </mxCell>
        <mxCell id="MnjqV8rqZ6TKMYj_u7_5-52" value="" style="rounded=0;whiteSpace=wrap;html=1;" vertex="1" parent="MnjqV8rqZ6TKMYj_u7_5-37">
          <mxGeometry x="93.75" y="105" width="240" height="20" as="geometry" />
        </mxCell>
        <mxCell id="MnjqV8rqZ6TKMYj_u7_5-54" value="" style="shape=image;html=1;verticalAlign=top;verticalLabelPosition=bottom;labelBackgroundColor=#ffffff;imageAspect=0;aspect=fixed;image=https://cdn4.iconfinder.com/data/icons/evil-icons-user-interface/64/clip-128.png" vertex="1" parent="MnjqV8rqZ6TKMYj_u7_5-37">
          <mxGeometry x="93.75" y="197" width="38" height="38" as="geometry" />
        </mxCell>
        <mxCell id="MnjqV8rqZ6TKMYj_u7_5-56" value="Заголовок1" style="swimlane;whiteSpace=wrap;html=1;rounded=1" vertex="1" parent="MnjqV8rqZ6TKMYj_u7_5-37">
          <mxGeometry x="20" y="275" width="320" height="60" as="geometry">
            <mxRectangle x="20" y="220" width="110" height="30" as="alternateBounds" />
          </mxGeometry>
        </mxCell>
        <mxCell id="MnjqV8rqZ6TKMYj_u7_5-57" value="Текст1" style="text;html=1;align=center;verticalAlign=middle;resizable=0;points=[];autosize=1;strokeColor=none;fillColor=none;" vertex="1" parent="MnjqV8rqZ6TKMYj_u7_5-56">
          <mxGeometry x="130" y="30" width="60" height="30" as="geometry" />
        </mxCell>
        <mxCell id="MnjqV8rqZ6TKMYj_u7_5-58" value="&lt;font style=&quot;font-size: 9px;&quot;&gt;Логін користувача1&lt;/font&gt;" style="text;html=1;strokeColor=none;fillColor=none;align=center;verticalAlign=middle;whiteSpace=wrap;rounded=0;" vertex="1" parent="MnjqV8rqZ6TKMYj_u7_5-37">
          <mxGeometry x="20" y="275" width="130" height="20" as="geometry" />
        </mxCell>
        <mxCell id="MnjqV8rqZ6TKMYj_u7_5-59" value="" style="endArrow=none;html=1;rounded=0;exitX=0.906;exitY=0.05;exitDx=0;exitDy=0;exitPerimeter=0;entryX=0.909;entryY=1.11;entryDx=0;entryDy=0;entryPerimeter=0;" edge="1" parent="MnjqV8rqZ6TKMYj_u7_5-37" source="MnjqV8rqZ6TKMYj_u7_5-58" target="MnjqV8rqZ6TKMYj_u7_5-58">
          <mxGeometry width="50" height="50" relative="1" as="geometry">
            <mxPoint x="-50" y="105" as="sourcePoint" />
            <mxPoint x="140" y="295" as="targetPoint" />
          </mxGeometry>
        </mxCell>
        <mxCell id="MnjqV8rqZ6TKMYj_u7_5-64" value="Заголовок2" style="swimlane;whiteSpace=wrap;html=1;rounded=1" vertex="1" parent="MnjqV8rqZ6TKMYj_u7_5-37">
          <mxGeometry x="20" y="345" width="320" height="60" as="geometry">
            <mxRectangle x="20" y="220" width="110" height="30" as="alternateBounds" />
          </mxGeometry>
        </mxCell>
        <mxCell id="MnjqV8rqZ6TKMYj_u7_5-65" value="Текст2" style="text;html=1;align=center;verticalAlign=middle;resizable=0;points=[];autosize=1;strokeColor=none;fillColor=none;" vertex="1" parent="MnjqV8rqZ6TKMYj_u7_5-64">
          <mxGeometry x="130" y="30" width="60" height="30" as="geometry" />
        </mxCell>
        <mxCell id="MnjqV8rqZ6TKMYj_u7_5-66" value="&lt;font style=&quot;font-size: 9px;&quot;&gt;Логін користувача2&lt;/font&gt;" style="text;html=1;strokeColor=none;fillColor=none;align=center;verticalAlign=middle;whiteSpace=wrap;rounded=0;" vertex="1" parent="MnjqV8rqZ6TKMYj_u7_5-37">
          <mxGeometry x="20" y="345" width="130" height="20" as="geometry" />
        </mxCell>
        <mxCell id="MnjqV8rqZ6TKMYj_u7_5-67" value="" style="endArrow=none;html=1;rounded=0;exitX=0.906;exitY=0.05;exitDx=0;exitDy=0;exitPerimeter=0;entryX=0.909;entryY=1.11;entryDx=0;entryDy=0;entryPerimeter=0;" edge="1" parent="MnjqV8rqZ6TKMYj_u7_5-37" source="MnjqV8rqZ6TKMYj_u7_5-66" target="MnjqV8rqZ6TKMYj_u7_5-66">
          <mxGeometry width="50" height="50" relative="1" as="geometry">
            <mxPoint x="-50" y="175" as="sourcePoint" />
            <mxPoint x="140" y="365" as="targetPoint" />
          </mxGeometry>
        </mxCell>
        <mxCell id="MnjqV8rqZ6TKMYj_u7_5-68" value="" style="endArrow=none;dashed=1;html=1;dashPattern=1 3;strokeWidth=2;rounded=0;" edge="1" parent="MnjqV8rqZ6TKMYj_u7_5-37">
          <mxGeometry width="50" height="50" relative="1" as="geometry">
            <mxPoint x="140" y="425" as="sourcePoint" />
            <mxPoint x="220" y="425" as="targetPoint" />
          </mxGeometry>
        </mxCell>
        <mxCell id="MnjqV8rqZ6TKMYj_u7_5-70" value="Торгова ділянка" style="rounded=1;whiteSpace=wrap;html=1;" vertex="1" parent="MnjqV8rqZ6TKMYj_u7_5-37">
          <mxGeometry x="180" y="20" width="180" height="40" as="geometry" />
        </mxCell>
        <mxCell id="MnjqV8rqZ6TKMYj_u7_5-72" value="Персональний кабінет" style="rounded=1;whiteSpace=wrap;html=1;" vertex="1" parent="MnjqV8rqZ6TKMYj_u7_5-37">
          <mxGeometry y="20" width="180" height="40" as="geometry" />
        </mxCell>
        <mxCell id="MnjqV8rqZ6TKMYj_u7_5-55" value="" style="endArrow=none;html=1;rounded=0;" edge="1" parent="MnjqV8rqZ6TKMYj_u7_5-37">
          <mxGeometry width="50" height="50" relative="1" as="geometry">
            <mxPoint y="250" as="sourcePoint" />
            <mxPoint x="360" y="250" as="targetPoint" />
          </mxGeometry>
        </mxCell>
        <mxCell id="MnjqV8rqZ6TKMYj_u7_5-113" value="&lt;b&gt;&lt;font style=&quot;font-size: 14px;&quot;&gt;Форум&lt;/font&gt;&lt;/b&gt;" style="text;html=1;strokeColor=none;fillColor=none;align=center;verticalAlign=middle;whiteSpace=wrap;rounded=0;" vertex="1" parent="MnjqV8rqZ6TKMYj_u7_5-37">
          <mxGeometry x="150" y="60" width="60" height="30" as="geometry" />
        </mxCell>
        <mxCell id="MnjqV8rqZ6TKMYj_u7_5-42" style="edgeStyle=orthogonalEdgeStyle;rounded=0;orthogonalLoop=1;jettySize=auto;html=1;entryX=0.5;entryY=0;entryDx=0;entryDy=0;" edge="1" parent="1" source="MnjqV8rqZ6TKMYj_u7_5-30" target="MnjqV8rqZ6TKMYj_u7_5-37">
          <mxGeometry relative="1" as="geometry">
            <Array as="points">
              <mxPoint x="30" y="440" />
              <mxPoint x="30" y="350" />
              <mxPoint x="240" y="350" />
            </Array>
          </mxGeometry>
        </mxCell>
        <mxCell id="MnjqV8rqZ6TKMYj_u7_5-43" value="Персональний кабінет" style="swimlane;whiteSpace=wrap;html=1;" vertex="1" parent="1">
          <mxGeometry x="-810" y="400" width="360" height="360" as="geometry" />
        </mxCell>
        <mxCell id="MnjqV8rqZ6TKMYj_u7_5-69" value="Вийти з запису" style="rounded=1;whiteSpace=wrap;html=1;" vertex="1" parent="MnjqV8rqZ6TKMYj_u7_5-43">
          <mxGeometry x="270" y="70" width="80" height="30" as="geometry" />
        </mxCell>
        <mxCell id="MnjqV8rqZ6TKMYj_u7_5-73" value="Торгова ділянка" style="rounded=1;whiteSpace=wrap;html=1;" vertex="1" parent="MnjqV8rqZ6TKMYj_u7_5-43">
          <mxGeometry y="20" width="180" height="40" as="geometry" />
        </mxCell>
        <mxCell id="MnjqV8rqZ6TKMYj_u7_5-74" value="Форум" style="rounded=1;whiteSpace=wrap;html=1;" vertex="1" parent="MnjqV8rqZ6TKMYj_u7_5-43">
          <mxGeometry x="180" y="20" width="180" height="40" as="geometry" />
        </mxCell>
        <mxCell id="MnjqV8rqZ6TKMYj_u7_5-76" value="Посилання на витвір мистецтва1 від даного користувача" style="rounded=1;whiteSpace=wrap;html=1;" vertex="1" parent="MnjqV8rqZ6TKMYj_u7_5-43">
          <mxGeometry x="20" y="120" width="320" height="60" as="geometry" />
        </mxCell>
        <mxCell id="MnjqV8rqZ6TKMYj_u7_5-77" value="Посилання на витвір мистецтва2 від даного користувача" style="rounded=1;whiteSpace=wrap;html=1;" vertex="1" parent="MnjqV8rqZ6TKMYj_u7_5-43">
          <mxGeometry x="20" y="260" width="320" height="60" as="geometry" />
        </mxCell>
        <mxCell id="MnjqV8rqZ6TKMYj_u7_5-78" value="" style="endArrow=none;dashed=1;html=1;dashPattern=1 3;strokeWidth=2;rounded=0;" edge="1" parent="MnjqV8rqZ6TKMYj_u7_5-43">
          <mxGeometry width="50" height="50" relative="1" as="geometry">
            <mxPoint x="140" y="340" as="sourcePoint" />
            <mxPoint x="220" y="340" as="targetPoint" />
          </mxGeometry>
        </mxCell>
        <mxCell id="MnjqV8rqZ6TKMYj_u7_5-80" value="Посилання на пост1 від даного користувача" style="rounded=1;whiteSpace=wrap;html=1;" vertex="1" parent="MnjqV8rqZ6TKMYj_u7_5-43">
          <mxGeometry x="20" y="190" width="320" height="60" as="geometry" />
        </mxCell>
        <mxCell id="MnjqV8rqZ6TKMYj_u7_5-82" value="&lt;font style=&quot;font-size: 14px;&quot;&gt;Ваша активність&lt;/font&gt;" style="text;html=1;strokeColor=none;fillColor=none;align=left;verticalAlign=middle;whiteSpace=wrap;rounded=0;" vertex="1" parent="MnjqV8rqZ6TKMYj_u7_5-43">
          <mxGeometry x="20" y="85" width="130" height="30" as="geometry" />
        </mxCell>
        <mxCell id="MnjqV8rqZ6TKMYj_u7_5-111" value="&lt;font style=&quot;font-size: 14px;&quot;&gt;&lt;b&gt;Ваш персональний кабінет&lt;/b&gt;&lt;/font&gt;" style="text;html=1;strokeColor=none;fillColor=none;align=center;verticalAlign=middle;whiteSpace=wrap;rounded=0;" vertex="1" parent="MnjqV8rqZ6TKMYj_u7_5-43">
          <mxGeometry x="110" y="65" width="140" height="30" as="geometry" />
        </mxCell>
        <mxCell id="MnjqV8rqZ6TKMYj_u7_5-48" style="edgeStyle=orthogonalEdgeStyle;rounded=0;orthogonalLoop=1;jettySize=auto;html=1;entryX=0.5;entryY=0;entryDx=0;entryDy=0;" edge="1" parent="1" source="MnjqV8rqZ6TKMYj_u7_5-31" target="MnjqV8rqZ6TKMYj_u7_5-43">
          <mxGeometry relative="1" as="geometry">
            <Array as="points">
              <mxPoint x="-420" y="440" />
              <mxPoint x="-420" y="370" />
              <mxPoint x="-630" y="370" />
            </Array>
          </mxGeometry>
        </mxCell>
        <mxCell id="MnjqV8rqZ6TKMYj_u7_5-81" style="edgeStyle=orthogonalEdgeStyle;rounded=0;orthogonalLoop=1;jettySize=auto;html=1;entryX=0;entryY=0.5;entryDx=0;entryDy=0;" edge="1" parent="1" source="MnjqV8rqZ6TKMYj_u7_5-80" target="MnjqV8rqZ6TKMYj_u7_5-56">
          <mxGeometry relative="1" as="geometry">
            <Array as="points">
              <mxPoint x="40" y="620" />
              <mxPoint x="40" y="705" />
            </Array>
          </mxGeometry>
        </mxCell>
        <mxCell id="MnjqV8rqZ6TKMYj_u7_5-83" style="edgeStyle=orthogonalEdgeStyle;rounded=0;orthogonalLoop=1;jettySize=auto;html=1;entryX=0.5;entryY=0;entryDx=0;entryDy=0;" edge="1" parent="1" source="MnjqV8rqZ6TKMYj_u7_5-74" target="MnjqV8rqZ6TKMYj_u7_5-37">
          <mxGeometry relative="1" as="geometry">
            <Array as="points">
              <mxPoint x="-540" y="350" />
              <mxPoint x="240" y="350" />
            </Array>
          </mxGeometry>
        </mxCell>
        <mxCell id="MnjqV8rqZ6TKMYj_u7_5-84" style="edgeStyle=orthogonalEdgeStyle;rounded=0;orthogonalLoop=1;jettySize=auto;html=1;entryX=0.5;entryY=0;entryDx=0;entryDy=0;" edge="1" parent="1" source="MnjqV8rqZ6TKMYj_u7_5-72" target="MnjqV8rqZ6TKMYj_u7_5-43">
          <mxGeometry relative="1" as="geometry">
            <Array as="points">
              <mxPoint x="150" y="370" />
              <mxPoint x="-630" y="370" />
            </Array>
          </mxGeometry>
        </mxCell>
        <mxCell id="MnjqV8rqZ6TKMYj_u7_5-85" value="Торгова ділянка" style="swimlane;whiteSpace=wrap;html=1;" vertex="1" parent="1">
          <mxGeometry x="-375" y="660" width="360" height="410" as="geometry" />
        </mxCell>
        <mxCell id="MnjqV8rqZ6TKMYj_u7_5-87" value="Форум" style="rounded=1;whiteSpace=wrap;html=1;" vertex="1" parent="MnjqV8rqZ6TKMYj_u7_5-85">
          <mxGeometry x="180" y="20" width="180" height="40" as="geometry" />
        </mxCell>
        <mxCell id="MnjqV8rqZ6TKMYj_u7_5-88" value="Персональний кабінет" style="rounded=1;whiteSpace=wrap;html=1;" vertex="1" parent="MnjqV8rqZ6TKMYj_u7_5-85">
          <mxGeometry y="20" width="180" height="40" as="geometry" />
        </mxCell>
        <mxCell id="MnjqV8rqZ6TKMYj_u7_5-96" value="Витвір мистецтва1" style="rounded=1;whiteSpace=wrap;html=1;" vertex="1" parent="MnjqV8rqZ6TKMYj_u7_5-85">
          <mxGeometry x="20" y="240" width="320" height="60" as="geometry" />
        </mxCell>
        <mxCell id="MnjqV8rqZ6TKMYj_u7_5-97" value="" style="endArrow=none;html=1;rounded=0;exitX=0.184;exitY=0.014;exitDx=0;exitDy=0;exitPerimeter=0;entryX=0.182;entryY=0.995;entryDx=0;entryDy=0;entryPerimeter=0;" edge="1" parent="MnjqV8rqZ6TKMYj_u7_5-85" source="MnjqV8rqZ6TKMYj_u7_5-96" target="MnjqV8rqZ6TKMYj_u7_5-96">
          <mxGeometry width="50" height="50" relative="1" as="geometry">
            <mxPoint x="115" y="220" as="sourcePoint" />
            <mxPoint x="165" y="170" as="targetPoint" />
          </mxGeometry>
        </mxCell>
        <mxCell id="MnjqV8rqZ6TKMYj_u7_5-98" value="&lt;font style=&quot;font-size: 9px;&quot;&gt;Зображення1&lt;/font&gt;" style="text;html=1;strokeColor=none;fillColor=none;align=center;verticalAlign=middle;whiteSpace=wrap;rounded=0;" vertex="1" parent="MnjqV8rqZ6TKMYj_u7_5-85">
          <mxGeometry x="20" y="255" width="60" height="30" as="geometry" />
        </mxCell>
        <mxCell id="MnjqV8rqZ6TKMYj_u7_5-99" value="" style="endArrow=none;html=1;rounded=0;exitX=0.184;exitY=0.014;exitDx=0;exitDy=0;exitPerimeter=0;entryX=0.182;entryY=0.995;entryDx=0;entryDy=0;entryPerimeter=0;" edge="1" parent="MnjqV8rqZ6TKMYj_u7_5-85">
          <mxGeometry width="50" height="50" relative="1" as="geometry">
            <mxPoint x="270.44" y="240.15999999999997" as="sourcePoint" />
            <mxPoint x="269.44" y="299.15999999999997" as="targetPoint" />
          </mxGeometry>
        </mxCell>
        <mxCell id="MnjqV8rqZ6TKMYj_u7_5-101" value="&lt;font style=&quot;font-size: 9px;&quot;&gt;Ціна1&lt;/font&gt;" style="text;html=1;strokeColor=none;fillColor=none;align=center;verticalAlign=middle;whiteSpace=wrap;rounded=0;" vertex="1" parent="MnjqV8rqZ6TKMYj_u7_5-85">
          <mxGeometry x="275" y="255" width="60" height="30" as="geometry" />
        </mxCell>
        <mxCell id="MnjqV8rqZ6TKMYj_u7_5-103" value="&lt;font style=&quot;font-size: 9px;&quot;&gt;Логін творця1&lt;/font&gt;" style="rounded=0;whiteSpace=wrap;html=1;" vertex="1" parent="MnjqV8rqZ6TKMYj_u7_5-85">
          <mxGeometry x="80" y="240" width="60" height="20" as="geometry" />
        </mxCell>
        <mxCell id="MnjqV8rqZ6TKMYj_u7_5-104" value="Витвір мистецтва1" style="rounded=1;whiteSpace=wrap;html=1;" vertex="1" parent="MnjqV8rqZ6TKMYj_u7_5-85">
          <mxGeometry x="20" y="310" width="320" height="60" as="geometry" />
        </mxCell>
        <mxCell id="MnjqV8rqZ6TKMYj_u7_5-105" value="" style="endArrow=none;html=1;rounded=0;exitX=0.184;exitY=0.014;exitDx=0;exitDy=0;exitPerimeter=0;entryX=0.182;entryY=0.995;entryDx=0;entryDy=0;entryPerimeter=0;" edge="1" parent="MnjqV8rqZ6TKMYj_u7_5-85" source="MnjqV8rqZ6TKMYj_u7_5-104" target="MnjqV8rqZ6TKMYj_u7_5-104">
          <mxGeometry width="50" height="50" relative="1" as="geometry">
            <mxPoint x="115" y="290" as="sourcePoint" />
            <mxPoint x="165" y="240" as="targetPoint" />
          </mxGeometry>
        </mxCell>
        <mxCell id="MnjqV8rqZ6TKMYj_u7_5-106" value="&lt;font style=&quot;font-size: 9px;&quot;&gt;Зображення1&lt;/font&gt;" style="text;html=1;strokeColor=none;fillColor=none;align=center;verticalAlign=middle;whiteSpace=wrap;rounded=0;" vertex="1" parent="MnjqV8rqZ6TKMYj_u7_5-85">
          <mxGeometry x="20" y="325" width="60" height="30" as="geometry" />
        </mxCell>
        <mxCell id="MnjqV8rqZ6TKMYj_u7_5-107" value="" style="endArrow=none;html=1;rounded=0;exitX=0.184;exitY=0.014;exitDx=0;exitDy=0;exitPerimeter=0;entryX=0.182;entryY=0.995;entryDx=0;entryDy=0;entryPerimeter=0;" edge="1" parent="MnjqV8rqZ6TKMYj_u7_5-85">
          <mxGeometry width="50" height="50" relative="1" as="geometry">
            <mxPoint x="270.44" y="310.15999999999997" as="sourcePoint" />
            <mxPoint x="269.44" y="369.15999999999985" as="targetPoint" />
          </mxGeometry>
        </mxCell>
        <mxCell id="MnjqV8rqZ6TKMYj_u7_5-108" value="&lt;font style=&quot;font-size: 9px;&quot;&gt;Ціна1&lt;/font&gt;" style="text;html=1;strokeColor=none;fillColor=none;align=center;verticalAlign=middle;whiteSpace=wrap;rounded=0;" vertex="1" parent="MnjqV8rqZ6TKMYj_u7_5-85">
          <mxGeometry x="275" y="325" width="60" height="30" as="geometry" />
        </mxCell>
        <mxCell id="MnjqV8rqZ6TKMYj_u7_5-109" value="&lt;font style=&quot;font-size: 9px;&quot;&gt;Логін творця1&lt;/font&gt;" style="rounded=0;whiteSpace=wrap;html=1;" vertex="1" parent="MnjqV8rqZ6TKMYj_u7_5-85">
          <mxGeometry x="80" y="310" width="60" height="20" as="geometry" />
        </mxCell>
        <mxCell id="MnjqV8rqZ6TKMYj_u7_5-110" value="" style="endArrow=none;dashed=1;html=1;dashPattern=1 3;strokeWidth=2;rounded=0;" edge="1" parent="MnjqV8rqZ6TKMYj_u7_5-85">
          <mxGeometry width="50" height="50" relative="1" as="geometry">
            <mxPoint x="140" y="390" as="sourcePoint" />
            <mxPoint x="220" y="390" as="targetPoint" />
          </mxGeometry>
        </mxCell>
        <mxCell id="MnjqV8rqZ6TKMYj_u7_5-112" value="&lt;font style=&quot;font-size: 14px;&quot;&gt;&lt;b&gt;Торгова ділянка&lt;/b&gt;&lt;/font&gt;" style="text;html=1;strokeColor=none;fillColor=none;align=center;verticalAlign=middle;whiteSpace=wrap;rounded=0;" vertex="1" parent="MnjqV8rqZ6TKMYj_u7_5-85">
          <mxGeometry x="120" y="60" width="120" height="30" as="geometry" />
        </mxCell>
        <mxCell id="MnjqV8rqZ6TKMYj_u7_5-116" value="Опублікувати" style="rounded=1;whiteSpace=wrap;html=1;" vertex="1" parent="MnjqV8rqZ6TKMYj_u7_5-85">
          <mxGeometry x="240" y="160" width="100" height="30" as="geometry" />
        </mxCell>
        <mxCell id="MnjqV8rqZ6TKMYj_u7_5-117" value="" style="rounded=0;whiteSpace=wrap;html=1;" vertex="1" parent="MnjqV8rqZ6TKMYj_u7_5-85">
          <mxGeometry x="60" y="100" width="280" height="20" as="geometry" />
        </mxCell>
        <mxCell id="MnjqV8rqZ6TKMYj_u7_5-118" value="Назва" style="text;html=1;strokeColor=none;fillColor=none;align=left;verticalAlign=middle;whiteSpace=wrap;rounded=0;" vertex="1" parent="MnjqV8rqZ6TKMYj_u7_5-85">
          <mxGeometry x="20" y="95" width="35" height="30" as="geometry" />
        </mxCell>
        <mxCell id="MnjqV8rqZ6TKMYj_u7_5-121" value="" style="shape=image;html=1;verticalAlign=top;verticalLabelPosition=bottom;labelBackgroundColor=#ffffff;imageAspect=0;aspect=fixed;image=https://cdn4.iconfinder.com/data/icons/evil-icons-user-interface/64/clip-128.png" vertex="1" parent="MnjqV8rqZ6TKMYj_u7_5-85">
          <mxGeometry x="60" y="150" width="50" height="50" as="geometry" />
        </mxCell>
        <mxCell id="MnjqV8rqZ6TKMYj_u7_5-122" value="Ціна" style="text;html=1;strokeColor=none;fillColor=none;align=left;verticalAlign=middle;whiteSpace=wrap;rounded=0;" vertex="1" parent="MnjqV8rqZ6TKMYj_u7_5-85">
          <mxGeometry x="20" y="125" width="60" height="30" as="geometry" />
        </mxCell>
        <mxCell id="MnjqV8rqZ6TKMYj_u7_5-123" value="" style="rounded=0;whiteSpace=wrap;html=1;" vertex="1" parent="MnjqV8rqZ6TKMYj_u7_5-85">
          <mxGeometry x="60" y="130" width="90" height="20" as="geometry" />
        </mxCell>
        <mxCell id="MnjqV8rqZ6TKMYj_u7_5-124" value="Валюта" style="text;html=1;strokeColor=none;fillColor=none;align=center;verticalAlign=middle;whiteSpace=wrap;rounded=0;" vertex="1" parent="MnjqV8rqZ6TKMYj_u7_5-85">
          <mxGeometry x="190" y="125" width="60" height="30" as="geometry" />
        </mxCell>
        <mxCell id="MnjqV8rqZ6TKMYj_u7_5-125" value="" style="rounded=0;whiteSpace=wrap;html=1;" vertex="1" parent="MnjqV8rqZ6TKMYj_u7_5-85">
          <mxGeometry x="250" y="130" width="90" height="20" as="geometry" />
        </mxCell>
        <mxCell id="MnjqV8rqZ6TKMYj_u7_5-90" style="edgeStyle=orthogonalEdgeStyle;rounded=0;orthogonalLoop=1;jettySize=auto;html=1;" edge="1" parent="1" source="MnjqV8rqZ6TKMYj_u7_5-29" target="MnjqV8rqZ6TKMYj_u7_5-85">
          <mxGeometry relative="1" as="geometry">
            <Array as="points">
              <mxPoint x="-195" y="560" />
              <mxPoint x="-195" y="560" />
            </Array>
          </mxGeometry>
        </mxCell>
        <mxCell id="MnjqV8rqZ6TKMYj_u7_5-91" style="edgeStyle=orthogonalEdgeStyle;rounded=0;orthogonalLoop=1;jettySize=auto;html=1;entryX=0.5;entryY=0;entryDx=0;entryDy=0;" edge="1" parent="1" source="MnjqV8rqZ6TKMYj_u7_5-73" target="MnjqV8rqZ6TKMYj_u7_5-85">
          <mxGeometry relative="1" as="geometry">
            <Array as="points">
              <mxPoint x="-830" y="440" />
              <mxPoint x="-830" y="780" />
              <mxPoint x="-400" y="780" />
              <mxPoint x="-400" y="640" />
              <mxPoint x="-195" y="640" />
            </Array>
          </mxGeometry>
        </mxCell>
        <mxCell id="MnjqV8rqZ6TKMYj_u7_5-92" style="edgeStyle=orthogonalEdgeStyle;rounded=0;orthogonalLoop=1;jettySize=auto;html=1;entryX=0.5;entryY=0;entryDx=0;entryDy=0;" edge="1" parent="1" source="MnjqV8rqZ6TKMYj_u7_5-70" target="MnjqV8rqZ6TKMYj_u7_5-85">
          <mxGeometry relative="1" as="geometry">
            <Array as="points">
              <mxPoint x="440" y="440" />
              <mxPoint x="440" y="860" />
              <mxPoint x="10" y="860" />
              <mxPoint x="10" y="640" />
              <mxPoint x="-195" y="640" />
            </Array>
          </mxGeometry>
        </mxCell>
        <mxCell id="MnjqV8rqZ6TKMYj_u7_5-93" style="edgeStyle=orthogonalEdgeStyle;rounded=0;orthogonalLoop=1;jettySize=auto;html=1;entryX=0.5;entryY=0;entryDx=0;entryDy=0;" edge="1" parent="1" source="MnjqV8rqZ6TKMYj_u7_5-88" target="MnjqV8rqZ6TKMYj_u7_5-43">
          <mxGeometry relative="1" as="geometry">
            <Array as="points">
              <mxPoint x="-420" y="700" />
              <mxPoint x="-420" y="370" />
              <mxPoint x="-630" y="370" />
            </Array>
          </mxGeometry>
        </mxCell>
        <mxCell id="MnjqV8rqZ6TKMYj_u7_5-94" style="edgeStyle=orthogonalEdgeStyle;rounded=0;orthogonalLoop=1;jettySize=auto;html=1;entryX=0.5;entryY=0;entryDx=0;entryDy=0;" edge="1" parent="1" source="MnjqV8rqZ6TKMYj_u7_5-87" target="MnjqV8rqZ6TKMYj_u7_5-37">
          <mxGeometry relative="1" as="geometry">
            <Array as="points">
              <mxPoint x="30" y="700" />
              <mxPoint x="30" y="350" />
              <mxPoint x="240" y="350" />
            </Array>
          </mxGeometry>
        </mxCell>
        <mxCell id="MnjqV8rqZ6TKMYj_u7_5-114" style="edgeStyle=orthogonalEdgeStyle;rounded=0;orthogonalLoop=1;jettySize=auto;html=1;entryX=0;entryY=0.5;entryDx=0;entryDy=0;" edge="1" parent="1" source="MnjqV8rqZ6TKMYj_u7_5-76" target="MnjqV8rqZ6TKMYj_u7_5-98">
          <mxGeometry relative="1" as="geometry">
            <mxPoint x="-355" y="760" as="targetPoint" />
            <Array as="points">
              <mxPoint x="-430" y="550" />
              <mxPoint x="-430" y="930" />
            </Array>
          </mxGeometry>
        </mxCell>
        <mxCell id="MnjqV8rqZ6TKMYj_u7_5-115" style="edgeStyle=orthogonalEdgeStyle;rounded=0;orthogonalLoop=1;jettySize=auto;html=1;entryX=0;entryY=0.5;entryDx=0;entryDy=0;" edge="1" parent="1" source="MnjqV8rqZ6TKMYj_u7_5-77" target="MnjqV8rqZ6TKMYj_u7_5-106">
          <mxGeometry relative="1" as="geometry">
            <mxPoint x="-240" y="900" as="targetPoint" />
            <Array as="points">
              <mxPoint x="-412" y="690" />
              <mxPoint x="-412" y="1000" />
            </Array>
          </mxGeometry>
        </mxCell>
        <mxCell id="MnjqV8rqZ6TKMYj_u7_5-127" value="" style="endArrow=none;html=1;rounded=0;entryX=1;entryY=0.5;entryDx=0;entryDy=0;exitX=0;exitY=0.5;exitDx=0;exitDy=0;" edge="1" parent="1" source="MnjqV8rqZ6TKMYj_u7_5-85" target="MnjqV8rqZ6TKMYj_u7_5-85">
          <mxGeometry width="50" height="50" relative="1" as="geometry">
            <mxPoint x="-340" y="880" as="sourcePoint" />
            <mxPoint x="-20" y="870" as="targetPoint" />
          </mxGeometry>
        </mxCell>
        <mxCell id="MnjqV8rqZ6TKMYj_u7_5-129" value="Витвір мистецтва на продажі" style="swimlane;whiteSpace=wrap;html=1;" vertex="1" parent="1">
          <mxGeometry x="60" y="890" width="310" height="200" as="geometry" />
        </mxCell>
        <mxCell id="MnjqV8rqZ6TKMYj_u7_5-130" value="&lt;font style=&quot;font-size: 9px;&quot;&gt;Зображення1&lt;/font&gt;" style="rounded=0;whiteSpace=wrap;html=1;" vertex="1" parent="MnjqV8rqZ6TKMYj_u7_5-129">
          <mxGeometry x="22.5" y="60" width="66.25" height="60" as="geometry" />
        </mxCell>
        <mxCell id="MnjqV8rqZ6TKMYj_u7_5-131" value="&lt;font style=&quot;font-size: 9px;&quot;&gt;Зображення2&lt;/font&gt;" style="rounded=0;whiteSpace=wrap;html=1;" vertex="1" parent="MnjqV8rqZ6TKMYj_u7_5-129">
          <mxGeometry x="88.75" y="60" width="66.25" height="60" as="geometry" />
        </mxCell>
        <mxCell id="MnjqV8rqZ6TKMYj_u7_5-132" value="&lt;font style=&quot;font-size: 9px;&quot;&gt;Зображення3&lt;/font&gt;" style="rounded=0;whiteSpace=wrap;html=1;" vertex="1" parent="MnjqV8rqZ6TKMYj_u7_5-129">
          <mxGeometry x="155" y="60" width="66.25" height="60" as="geometry" />
        </mxCell>
        <mxCell id="MnjqV8rqZ6TKMYj_u7_5-133" value="&lt;font style=&quot;font-size: 9px;&quot;&gt;Зображення4&lt;/font&gt;" style="rounded=0;whiteSpace=wrap;html=1;" vertex="1" parent="MnjqV8rqZ6TKMYj_u7_5-129">
          <mxGeometry x="221.25" y="60" width="66.25" height="60" as="geometry" />
        </mxCell>
        <mxCell id="MnjqV8rqZ6TKMYj_u7_5-134" value="Назва" style="text;html=1;strokeColor=none;fillColor=none;align=left;verticalAlign=middle;whiteSpace=wrap;rounded=0;" vertex="1" parent="MnjqV8rqZ6TKMYj_u7_5-129">
          <mxGeometry x="22.5" y="30" width="60" height="30" as="geometry" />
        </mxCell>
        <mxCell id="MnjqV8rqZ6TKMYj_u7_5-135" value="Логін творця" style="text;html=1;strokeColor=none;fillColor=none;align=center;verticalAlign=middle;whiteSpace=wrap;rounded=0;" vertex="1" parent="MnjqV8rqZ6TKMYj_u7_5-129">
          <mxGeometry x="16.88" y="130" width="77.5" height="30" as="geometry" />
        </mxCell>
        <mxCell id="MnjqV8rqZ6TKMYj_u7_5-136" value="Коментар від творця" style="text;html=1;strokeColor=none;fillColor=none;align=center;verticalAlign=middle;whiteSpace=wrap;rounded=0;" vertex="1" parent="MnjqV8rqZ6TKMYj_u7_5-129">
          <mxGeometry x="157.5" y="130" width="130" height="30" as="geometry" />
        </mxCell>
        <mxCell id="MnjqV8rqZ6TKMYj_u7_5-137" value="Ціна" style="text;html=1;strokeColor=none;fillColor=none;align=right;verticalAlign=middle;whiteSpace=wrap;rounded=0;" vertex="1" parent="MnjqV8rqZ6TKMYj_u7_5-129">
          <mxGeometry x="227.5" y="30" width="60" height="30" as="geometry" />
        </mxCell>
        <mxCell id="MnjqV8rqZ6TKMYj_u7_5-138" value="Купити" style="rounded=1;whiteSpace=wrap;html=1;" vertex="1" parent="MnjqV8rqZ6TKMYj_u7_5-129">
          <mxGeometry x="170" y="160" width="110" height="30" as="geometry" />
        </mxCell>
        <mxCell id="MnjqV8rqZ6TKMYj_u7_5-139" style="edgeStyle=orthogonalEdgeStyle;rounded=0;orthogonalLoop=1;jettySize=auto;html=1;entryX=0.478;entryY=-0.002;entryDx=0;entryDy=0;entryPerimeter=0;" edge="1" parent="1" source="MnjqV8rqZ6TKMYj_u7_5-96" target="MnjqV8rqZ6TKMYj_u7_5-129">
          <mxGeometry relative="1" as="geometry">
            <Array as="points">
              <mxPoint x="10" y="930" />
              <mxPoint x="10" y="870" />
              <mxPoint x="208" y="870" />
            </Array>
          </mxGeometry>
        </mxCell>
        <mxCell id="MnjqV8rqZ6TKMYj_u7_5-140" value="Пост" style="swimlane;whiteSpace=wrap;html=1;" vertex="1" parent="1">
          <mxGeometry x="460" y="660" width="310" height="380" as="geometry" />
        </mxCell>
        <mxCell id="MnjqV8rqZ6TKMYj_u7_5-145" value="Заголовок" style="text;html=1;strokeColor=none;fillColor=none;align=left;verticalAlign=middle;whiteSpace=wrap;rounded=0;" vertex="1" parent="MnjqV8rqZ6TKMYj_u7_5-140">
          <mxGeometry x="125" y="30" width="60" height="30" as="geometry" />
        </mxCell>
        <mxCell id="MnjqV8rqZ6TKMYj_u7_5-150" value="Тест" style="text;html=1;strokeColor=none;fillColor=none;align=center;verticalAlign=middle;whiteSpace=wrap;rounded=0;" vertex="1" parent="MnjqV8rqZ6TKMYj_u7_5-140">
          <mxGeometry x="125" y="60" width="60" height="30" as="geometry" />
        </mxCell>
        <mxCell id="MnjqV8rqZ6TKMYj_u7_5-154" value="&lt;font style=&quot;font-size: 9px;&quot;&gt;Зображення1&lt;/font&gt;" style="rounded=0;whiteSpace=wrap;html=1;" vertex="1" parent="MnjqV8rqZ6TKMYj_u7_5-140">
          <mxGeometry x="22.5" y="90" width="66.25" height="60" as="geometry" />
        </mxCell>
        <mxCell id="MnjqV8rqZ6TKMYj_u7_5-155" value="&lt;font style=&quot;font-size: 9px;&quot;&gt;Зображення2&lt;/font&gt;" style="rounded=0;whiteSpace=wrap;html=1;" vertex="1" parent="MnjqV8rqZ6TKMYj_u7_5-140">
          <mxGeometry x="88.75" y="90" width="66.25" height="60" as="geometry" />
        </mxCell>
        <mxCell id="MnjqV8rqZ6TKMYj_u7_5-156" value="&lt;font style=&quot;font-size: 9px;&quot;&gt;Зображення3&lt;/font&gt;" style="rounded=0;whiteSpace=wrap;html=1;" vertex="1" parent="MnjqV8rqZ6TKMYj_u7_5-140">
          <mxGeometry x="155" y="90" width="66.25" height="60" as="geometry" />
        </mxCell>
        <mxCell id="MnjqV8rqZ6TKMYj_u7_5-157" value="&lt;font style=&quot;font-size: 9px;&quot;&gt;Зображення4&lt;/font&gt;" style="rounded=0;whiteSpace=wrap;html=1;" vertex="1" parent="MnjqV8rqZ6TKMYj_u7_5-140">
          <mxGeometry x="221.25" y="90" width="66.25" height="60" as="geometry" />
        </mxCell>
        <mxCell id="MnjqV8rqZ6TKMYj_u7_5-159" value="" style="rounded=0;whiteSpace=wrap;html=1;" vertex="1" parent="MnjqV8rqZ6TKMYj_u7_5-140">
          <mxGeometry x="20" y="170" width="270" height="30" as="geometry" />
        </mxCell>
        <mxCell id="MnjqV8rqZ6TKMYj_u7_5-160" value="Залишити повідомлення" style="rounded=1;whiteSpace=wrap;html=1;" vertex="1" parent="MnjqV8rqZ6TKMYj_u7_5-140">
          <mxGeometry x="150" y="210" width="140" height="20" as="geometry" />
        </mxCell>
        <mxCell id="MnjqV8rqZ6TKMYj_u7_5-153" value="" style="endArrow=none;html=1;rounded=0;exitX=0;exitY=0.5;exitDx=0;exitDy=0;entryX=1;entryY=0.5;entryDx=0;entryDy=0;" edge="1" parent="MnjqV8rqZ6TKMYj_u7_5-140">
          <mxGeometry width="50" height="50" relative="1" as="geometry">
            <mxPoint y="160" as="sourcePoint" />
            <mxPoint x="310" y="160" as="targetPoint" />
          </mxGeometry>
        </mxCell>
        <mxCell id="MnjqV8rqZ6TKMYj_u7_5-161" value="" style="endArrow=none;html=1;rounded=0;exitX=0;exitY=0.5;exitDx=0;exitDy=0;entryX=1;entryY=0.5;entryDx=0;entryDy=0;" edge="1" parent="MnjqV8rqZ6TKMYj_u7_5-140">
          <mxGeometry width="50" height="50" relative="1" as="geometry">
            <mxPoint y="240" as="sourcePoint" />
            <mxPoint x="310" y="240" as="targetPoint" />
          </mxGeometry>
        </mxCell>
        <mxCell id="MnjqV8rqZ6TKMYj_u7_5-163" value="" style="shape=ext;double=1;rounded=0;whiteSpace=wrap;html=1;" vertex="1" parent="MnjqV8rqZ6TKMYj_u7_5-140">
          <mxGeometry x="20" y="250" width="270" height="50" as="geometry" />
        </mxCell>
        <mxCell id="MnjqV8rqZ6TKMYj_u7_5-162" value="&lt;font style=&quot;font-size: 9px;&quot;&gt;Логін користувача1&lt;/font&gt;" style="text;html=1;strokeColor=none;fillColor=none;align=center;verticalAlign=middle;whiteSpace=wrap;rounded=0;" vertex="1" parent="MnjqV8rqZ6TKMYj_u7_5-140">
          <mxGeometry x="22.5" y="250" width="90" height="30" as="geometry" />
        </mxCell>
        <mxCell id="MnjqV8rqZ6TKMYj_u7_5-164" value="Текст повідомлення1" style="text;html=1;strokeColor=none;fillColor=none;align=center;verticalAlign=middle;whiteSpace=wrap;rounded=0;" vertex="1" parent="MnjqV8rqZ6TKMYj_u7_5-140">
          <mxGeometry x="22.5" y="270" width="267.5" height="30" as="geometry" />
        </mxCell>
        <mxCell id="MnjqV8rqZ6TKMYj_u7_5-165" value="" style="shape=ext;double=1;rounded=0;whiteSpace=wrap;html=1;" vertex="1" parent="MnjqV8rqZ6TKMYj_u7_5-140">
          <mxGeometry x="20" y="310" width="270" height="50" as="geometry" />
        </mxCell>
        <mxCell id="MnjqV8rqZ6TKMYj_u7_5-166" value="&lt;font style=&quot;font-size: 9px;&quot;&gt;Логін користувача1&lt;/font&gt;" style="text;html=1;strokeColor=none;fillColor=none;align=center;verticalAlign=middle;whiteSpace=wrap;rounded=0;" vertex="1" parent="MnjqV8rqZ6TKMYj_u7_5-140">
          <mxGeometry x="22.5" y="310" width="90" height="30" as="geometry" />
        </mxCell>
        <mxCell id="MnjqV8rqZ6TKMYj_u7_5-167" value="Текст повідомлення2" style="text;html=1;strokeColor=none;fillColor=none;align=center;verticalAlign=middle;whiteSpace=wrap;rounded=0;" vertex="1" parent="MnjqV8rqZ6TKMYj_u7_5-140">
          <mxGeometry x="22.5" y="330" width="267.5" height="30" as="geometry" />
        </mxCell>
        <mxCell id="MnjqV8rqZ6TKMYj_u7_5-170" style="edgeStyle=orthogonalEdgeStyle;rounded=0;orthogonalLoop=1;jettySize=auto;html=1;entryX=0.5;entryY=0;entryDx=0;entryDy=0;" edge="1" parent="1" source="MnjqV8rqZ6TKMYj_u7_5-56" target="MnjqV8rqZ6TKMYj_u7_5-140">
          <mxGeometry relative="1" as="geometry" />
        </mxCell>
      </root>
    </mxGraphModel>
  </diagram>
</mxfile>
